<mxfile host="app.diagrams.net" modified="2023-12-11T10:29:38.888Z" agent="Mozilla/5.0 (Windows NT 10.0; Win64; x64) AppleWebKit/537.36 (KHTML, like Gecko) Chrome/105.0.0.0 Safari/537.36 Edg/105.0.1343.50" etag="MEgL48Ne6mq5fa-qjAwX" version="22.1.7" type="github">
  <diagram id="prtHgNgQTEPvFCAcTncT" name="Page-1">
    <mxGraphModel dx="452" dy="246" grid="0" gridSize="10" guides="1" tooltips="1" connect="1" arrows="1" fold="1" page="1" pageScale="1" pageWidth="827" pageHeight="1169" math="0" shadow="0">
      <root>
        <mxCell id="0" />
        <mxCell id="1" parent="0" />
        <mxCell id="vmbFCQiHmaRABoGZYBvy-51" value="" style="rounded=1;whiteSpace=wrap;html=1;dashed=1;dashPattern=8 8;" vertex="1" parent="1">
          <mxGeometry x="151" y="295" width="644" height="199" as="geometry" />
        </mxCell>
        <mxCell id="vmbFCQiHmaRABoGZYBvy-41" value="" style="rounded=1;whiteSpace=wrap;html=1;dashed=1;dashPattern=8 8;" vertex="1" parent="1">
          <mxGeometry x="150" y="104" width="630" height="159" as="geometry" />
        </mxCell>
        <mxCell id="vmbFCQiHmaRABoGZYBvy-40" value="" style="rounded=1;whiteSpace=wrap;html=1;" vertex="1" parent="1">
          <mxGeometry x="303" y="332" width="477" height="142" as="geometry" />
        </mxCell>
        <mxCell id="vmbFCQiHmaRABoGZYBvy-67" style="edgeStyle=orthogonalEdgeStyle;rounded=0;orthogonalLoop=1;jettySize=auto;html=1;exitX=1;exitY=0.5;exitDx=0;exitDy=0;entryX=0.5;entryY=1;entryDx=0;entryDy=0;curved=1;strokeColor=default;startArrow=classic;startFill=1;" edge="1" parent="1" source="vmbFCQiHmaRABoGZYBvy-1" target="vmbFCQiHmaRABoGZYBvy-56">
          <mxGeometry relative="1" as="geometry" />
        </mxCell>
        <mxCell id="vmbFCQiHmaRABoGZYBvy-1" value="DB" style="shape=datastore;whiteSpace=wrap;html=1;" vertex="1" parent="1">
          <mxGeometry x="673" y="204" width="35" height="45" as="geometry" />
        </mxCell>
        <mxCell id="vmbFCQiHmaRABoGZYBvy-11" style="edgeStyle=orthogonalEdgeStyle;rounded=0;orthogonalLoop=1;jettySize=auto;html=1;exitX=1;exitY=0.25;exitDx=0;exitDy=0;entryX=0;entryY=0.25;entryDx=0;entryDy=0;" edge="1" parent="1" source="vmbFCQiHmaRABoGZYBvy-2" target="vmbFCQiHmaRABoGZYBvy-7">
          <mxGeometry relative="1" as="geometry" />
        </mxCell>
        <mxCell id="vmbFCQiHmaRABoGZYBvy-2" value="APP/Broser" style="rounded=1;whiteSpace=wrap;html=1;" vertex="1" parent="1">
          <mxGeometry x="30" y="141.5" width="80" height="45" as="geometry" />
        </mxCell>
        <mxCell id="vmbFCQiHmaRABoGZYBvy-12" style="edgeStyle=orthogonalEdgeStyle;rounded=0;orthogonalLoop=1;jettySize=auto;html=1;exitX=0;exitY=0.75;exitDx=0;exitDy=0;entryX=1;entryY=0.75;entryDx=0;entryDy=0;" edge="1" parent="1" source="vmbFCQiHmaRABoGZYBvy-7" target="vmbFCQiHmaRABoGZYBvy-2">
          <mxGeometry relative="1" as="geometry" />
        </mxCell>
        <mxCell id="vmbFCQiHmaRABoGZYBvy-13" style="edgeStyle=orthogonalEdgeStyle;rounded=0;orthogonalLoop=1;jettySize=auto;html=1;exitX=1;exitY=0.25;exitDx=0;exitDy=0;entryX=0;entryY=0.25;entryDx=0;entryDy=0;" edge="1" parent="1" source="vmbFCQiHmaRABoGZYBvy-7" target="vmbFCQiHmaRABoGZYBvy-8">
          <mxGeometry relative="1" as="geometry" />
        </mxCell>
        <mxCell id="vmbFCQiHmaRABoGZYBvy-7" value="Tomcat" style="rounded=1;whiteSpace=wrap;html=1;" vertex="1" parent="1">
          <mxGeometry x="170" y="141.5" width="80" height="45" as="geometry" />
        </mxCell>
        <mxCell id="vmbFCQiHmaRABoGZYBvy-14" style="edgeStyle=orthogonalEdgeStyle;rounded=0;orthogonalLoop=1;jettySize=auto;html=1;exitX=0;exitY=0.75;exitDx=0;exitDy=0;entryX=1;entryY=0.75;entryDx=0;entryDy=0;" edge="1" parent="1" source="vmbFCQiHmaRABoGZYBvy-8" target="vmbFCQiHmaRABoGZYBvy-7">
          <mxGeometry relative="1" as="geometry" />
        </mxCell>
        <mxCell id="vmbFCQiHmaRABoGZYBvy-15" style="edgeStyle=orthogonalEdgeStyle;rounded=0;orthogonalLoop=1;jettySize=auto;html=1;exitX=1;exitY=0.25;exitDx=0;exitDy=0;entryX=0;entryY=0.25;entryDx=0;entryDy=0;" edge="1" parent="1" source="vmbFCQiHmaRABoGZYBvy-8" target="vmbFCQiHmaRABoGZYBvy-9">
          <mxGeometry relative="1" as="geometry" />
        </mxCell>
        <mxCell id="vmbFCQiHmaRABoGZYBvy-8" value="Servlet" style="rounded=1;whiteSpace=wrap;html=1;" vertex="1" parent="1">
          <mxGeometry x="310" y="141.5" width="80" height="45" as="geometry" />
        </mxCell>
        <mxCell id="vmbFCQiHmaRABoGZYBvy-16" style="edgeStyle=orthogonalEdgeStyle;rounded=0;orthogonalLoop=1;jettySize=auto;html=1;exitX=0;exitY=0.75;exitDx=0;exitDy=0;entryX=1;entryY=0.75;entryDx=0;entryDy=0;" edge="1" parent="1" source="vmbFCQiHmaRABoGZYBvy-9" target="vmbFCQiHmaRABoGZYBvy-8">
          <mxGeometry relative="1" as="geometry" />
        </mxCell>
        <mxCell id="vmbFCQiHmaRABoGZYBvy-17" style="edgeStyle=orthogonalEdgeStyle;rounded=0;orthogonalLoop=1;jettySize=auto;html=1;exitX=1;exitY=0.25;exitDx=0;exitDy=0;entryX=0;entryY=0.25;entryDx=0;entryDy=0;" edge="1" parent="1" source="vmbFCQiHmaRABoGZYBvy-9" target="vmbFCQiHmaRABoGZYBvy-10">
          <mxGeometry relative="1" as="geometry" />
        </mxCell>
        <mxCell id="vmbFCQiHmaRABoGZYBvy-9" value="Controller" style="rounded=1;whiteSpace=wrap;html=1;" vertex="1" parent="1">
          <mxGeometry x="440" y="141.5" width="80" height="45" as="geometry" />
        </mxCell>
        <mxCell id="vmbFCQiHmaRABoGZYBvy-18" style="edgeStyle=orthogonalEdgeStyle;rounded=0;orthogonalLoop=1;jettySize=auto;html=1;exitX=0;exitY=0.75;exitDx=0;exitDy=0;entryX=1;entryY=0.75;entryDx=0;entryDy=0;" edge="1" parent="1" source="vmbFCQiHmaRABoGZYBvy-10" target="vmbFCQiHmaRABoGZYBvy-9">
          <mxGeometry relative="1" as="geometry" />
        </mxCell>
        <mxCell id="vmbFCQiHmaRABoGZYBvy-60" style="edgeStyle=orthogonalEdgeStyle;rounded=0;orthogonalLoop=1;jettySize=auto;html=1;exitX=1;exitY=0.25;exitDx=0;exitDy=0;entryX=0;entryY=0.25;entryDx=0;entryDy=0;" edge="1" parent="1" source="vmbFCQiHmaRABoGZYBvy-10" target="vmbFCQiHmaRABoGZYBvy-56">
          <mxGeometry relative="1" as="geometry" />
        </mxCell>
        <mxCell id="vmbFCQiHmaRABoGZYBvy-10" value="Service" style="rounded=1;whiteSpace=wrap;html=1;" vertex="1" parent="1">
          <mxGeometry x="570" y="141.5" width="80" height="45" as="geometry" />
        </mxCell>
        <mxCell id="vmbFCQiHmaRABoGZYBvy-26" style="edgeStyle=orthogonalEdgeStyle;rounded=0;orthogonalLoop=1;jettySize=auto;html=1;exitX=1;exitY=0.25;exitDx=0;exitDy=0;entryX=0;entryY=0.25;entryDx=0;entryDy=0;" edge="1" parent="1" source="vmbFCQiHmaRABoGZYBvy-27" target="vmbFCQiHmaRABoGZYBvy-30">
          <mxGeometry relative="1" as="geometry" />
        </mxCell>
        <mxCell id="vmbFCQiHmaRABoGZYBvy-27" value="APP" style="rounded=1;whiteSpace=wrap;html=1;" vertex="1" parent="1">
          <mxGeometry x="33" y="369.5" width="80" height="45" as="geometry" />
        </mxCell>
        <mxCell id="vmbFCQiHmaRABoGZYBvy-28" style="edgeStyle=orthogonalEdgeStyle;rounded=0;orthogonalLoop=1;jettySize=auto;html=1;exitX=0;exitY=0.75;exitDx=0;exitDy=0;entryX=1;entryY=0.75;entryDx=0;entryDy=0;" edge="1" parent="1" source="vmbFCQiHmaRABoGZYBvy-30" target="vmbFCQiHmaRABoGZYBvy-27">
          <mxGeometry relative="1" as="geometry" />
        </mxCell>
        <mxCell id="vmbFCQiHmaRABoGZYBvy-29" style="edgeStyle=orthogonalEdgeStyle;rounded=0;orthogonalLoop=1;jettySize=auto;html=1;exitX=1;exitY=0.25;exitDx=0;exitDy=0;entryX=0;entryY=0.25;entryDx=0;entryDy=0;" edge="1" parent="1" source="vmbFCQiHmaRABoGZYBvy-30" target="vmbFCQiHmaRABoGZYBvy-33">
          <mxGeometry relative="1" as="geometry" />
        </mxCell>
        <mxCell id="vmbFCQiHmaRABoGZYBvy-30" value="IoT云端" style="rounded=1;whiteSpace=wrap;html=1;" vertex="1" parent="1">
          <mxGeometry x="173" y="369.5" width="80" height="45" as="geometry" />
        </mxCell>
        <mxCell id="vmbFCQiHmaRABoGZYBvy-31" style="edgeStyle=orthogonalEdgeStyle;rounded=0;orthogonalLoop=1;jettySize=auto;html=1;exitX=0;exitY=0.75;exitDx=0;exitDy=0;entryX=1;entryY=0.75;entryDx=0;entryDy=0;" edge="1" parent="1" source="vmbFCQiHmaRABoGZYBvy-33" target="vmbFCQiHmaRABoGZYBvy-30">
          <mxGeometry relative="1" as="geometry" />
        </mxCell>
        <mxCell id="vmbFCQiHmaRABoGZYBvy-32" style="edgeStyle=orthogonalEdgeStyle;rounded=0;orthogonalLoop=1;jettySize=auto;html=1;exitX=1;exitY=0.25;exitDx=0;exitDy=0;entryX=0;entryY=0.25;entryDx=0;entryDy=0;" edge="1" parent="1" source="vmbFCQiHmaRABoGZYBvy-33" target="vmbFCQiHmaRABoGZYBvy-36">
          <mxGeometry relative="1" as="geometry" />
        </mxCell>
        <mxCell id="vmbFCQiHmaRABoGZYBvy-33" value="协议解析，&lt;br&gt;用户接口封装" style="rounded=1;whiteSpace=wrap;html=1;" vertex="1" parent="1">
          <mxGeometry x="322" y="358" width="80" height="64" as="geometry" />
        </mxCell>
        <mxCell id="vmbFCQiHmaRABoGZYBvy-34" style="edgeStyle=orthogonalEdgeStyle;rounded=0;orthogonalLoop=1;jettySize=auto;html=1;exitX=0;exitY=0.75;exitDx=0;exitDy=0;entryX=1;entryY=0.75;entryDx=0;entryDy=0;" edge="1" parent="1" source="vmbFCQiHmaRABoGZYBvy-36" target="vmbFCQiHmaRABoGZYBvy-33">
          <mxGeometry relative="1" as="geometry" />
        </mxCell>
        <mxCell id="vmbFCQiHmaRABoGZYBvy-35" style="edgeStyle=orthogonalEdgeStyle;rounded=0;orthogonalLoop=1;jettySize=auto;html=1;exitX=1;exitY=0.25;exitDx=0;exitDy=0;entryX=0;entryY=0.25;entryDx=0;entryDy=0;" edge="1" parent="1" source="vmbFCQiHmaRABoGZYBvy-36" target="vmbFCQiHmaRABoGZYBvy-39">
          <mxGeometry relative="1" as="geometry" />
        </mxCell>
        <mxCell id="vmbFCQiHmaRABoGZYBvy-36" value="Controller" style="rounded=1;whiteSpace=wrap;html=1;" vertex="1" parent="1">
          <mxGeometry x="443" y="369.5" width="80" height="45" as="geometry" />
        </mxCell>
        <mxCell id="vmbFCQiHmaRABoGZYBvy-37" style="edgeStyle=orthogonalEdgeStyle;rounded=0;orthogonalLoop=1;jettySize=auto;html=1;exitX=0;exitY=0.75;exitDx=0;exitDy=0;entryX=1;entryY=0.75;entryDx=0;entryDy=0;" edge="1" parent="1" source="vmbFCQiHmaRABoGZYBvy-39" target="vmbFCQiHmaRABoGZYBvy-36">
          <mxGeometry relative="1" as="geometry" />
        </mxCell>
        <mxCell id="vmbFCQiHmaRABoGZYBvy-74" style="edgeStyle=orthogonalEdgeStyle;rounded=0;orthogonalLoop=1;jettySize=auto;html=1;exitX=1;exitY=0.25;exitDx=0;exitDy=0;entryX=0;entryY=0.25;entryDx=0;entryDy=0;" edge="1" parent="1" source="vmbFCQiHmaRABoGZYBvy-39" target="vmbFCQiHmaRABoGZYBvy-73">
          <mxGeometry relative="1" as="geometry" />
        </mxCell>
        <mxCell id="vmbFCQiHmaRABoGZYBvy-39" value="Service" style="rounded=1;whiteSpace=wrap;html=1;" vertex="1" parent="1">
          <mxGeometry x="573" y="369.5" width="80" height="45" as="geometry" />
        </mxCell>
        <mxCell id="vmbFCQiHmaRABoGZYBvy-42" value="&lt;b&gt;&lt;font style=&quot;font-size: 14px;&quot;&gt;Cloud&lt;/font&gt;&lt;/b&gt;" style="text;html=1;strokeColor=none;fillColor=none;align=center;verticalAlign=middle;whiteSpace=wrap;rounded=0;" vertex="1" parent="1">
          <mxGeometry x="455" y="114" width="50" height="10" as="geometry" />
        </mxCell>
        <mxCell id="vmbFCQiHmaRABoGZYBvy-43" value="&lt;b&gt;&lt;font style=&quot;font-size: 14px;&quot;&gt;设备端&lt;/font&gt;&lt;/b&gt;" style="text;html=1;strokeColor=none;fillColor=none;align=center;verticalAlign=middle;whiteSpace=wrap;rounded=0;" vertex="1" parent="1">
          <mxGeometry x="501" y="342" width="50" height="10" as="geometry" />
        </mxCell>
        <mxCell id="vmbFCQiHmaRABoGZYBvy-48" value="&lt;b&gt;HTTP&lt;/b&gt;" style="text;html=1;strokeColor=none;fillColor=none;align=center;verticalAlign=middle;whiteSpace=wrap;rounded=0;" vertex="1" parent="1">
          <mxGeometry x="102" y="149" width="60" height="30" as="geometry" />
        </mxCell>
        <mxCell id="vmbFCQiHmaRABoGZYBvy-49" value="&lt;b&gt;HTTP&lt;/b&gt;" style="text;html=1;strokeColor=none;fillColor=none;align=center;verticalAlign=middle;whiteSpace=wrap;rounded=0;" vertex="1" parent="1">
          <mxGeometry x="113" y="377" width="60" height="30" as="geometry" />
        </mxCell>
        <mxCell id="vmbFCQiHmaRABoGZYBvy-50" value="&lt;b&gt;MQTT&lt;/b&gt;" style="text;html=1;strokeColor=none;fillColor=none;align=center;verticalAlign=middle;whiteSpace=wrap;rounded=0;" vertex="1" parent="1">
          <mxGeometry x="253" y="377" width="60" height="30" as="geometry" />
        </mxCell>
        <mxCell id="vmbFCQiHmaRABoGZYBvy-52" value="&lt;span style=&quot;font-size: 14px;&quot;&gt;&lt;b&gt;从APP视角，整体作为服务端&lt;/b&gt;&lt;/span&gt;" style="text;html=1;strokeColor=none;fillColor=none;align=center;verticalAlign=middle;whiteSpace=wrap;rounded=0;" vertex="1" parent="1">
          <mxGeometry x="399" y="308" width="198" height="10" as="geometry" />
        </mxCell>
        <mxCell id="vmbFCQiHmaRABoGZYBvy-53" value="&lt;b&gt;DTO&lt;/b&gt;" style="text;html=1;strokeColor=none;fillColor=none;align=center;verticalAlign=middle;whiteSpace=wrap;rounded=0;" vertex="1" parent="1">
          <mxGeometry x="515" y="149" width="60" height="30" as="geometry" />
        </mxCell>
        <mxCell id="vmbFCQiHmaRABoGZYBvy-54" value="&lt;b&gt;DTO&lt;/b&gt;" style="text;html=1;strokeColor=none;fillColor=none;align=center;verticalAlign=middle;whiteSpace=wrap;rounded=0;" vertex="1" parent="1">
          <mxGeometry x="518" y="377" width="60" height="30" as="geometry" />
        </mxCell>
        <mxCell id="vmbFCQiHmaRABoGZYBvy-61" style="edgeStyle=orthogonalEdgeStyle;rounded=0;orthogonalLoop=1;jettySize=auto;html=1;exitX=0;exitY=0.75;exitDx=0;exitDy=0;entryX=1;entryY=0.75;entryDx=0;entryDy=0;" edge="1" parent="1" source="vmbFCQiHmaRABoGZYBvy-56" target="vmbFCQiHmaRABoGZYBvy-10">
          <mxGeometry relative="1" as="geometry" />
        </mxCell>
        <mxCell id="vmbFCQiHmaRABoGZYBvy-56" value="Dao" style="rounded=1;whiteSpace=wrap;html=1;" vertex="1" parent="1">
          <mxGeometry x="711" y="141.5" width="56" height="45" as="geometry" />
        </mxCell>
        <mxCell id="vmbFCQiHmaRABoGZYBvy-62" value="&lt;b&gt;Entity&lt;/b&gt;" style="text;html=1;strokeColor=none;fillColor=none;align=center;verticalAlign=middle;whiteSpace=wrap;rounded=0;" vertex="1" parent="1">
          <mxGeometry x="650" y="149" width="60" height="30" as="geometry" />
        </mxCell>
        <mxCell id="vmbFCQiHmaRABoGZYBvy-77" style="edgeStyle=orthogonalEdgeStyle;rounded=0;orthogonalLoop=1;jettySize=auto;html=1;entryX=0.5;entryY=1;entryDx=0;entryDy=0;curved=1;startArrow=classic;startFill=1;" edge="1" parent="1" source="vmbFCQiHmaRABoGZYBvy-72" target="vmbFCQiHmaRABoGZYBvy-73">
          <mxGeometry relative="1" as="geometry" />
        </mxCell>
        <mxCell id="vmbFCQiHmaRABoGZYBvy-72" value="DB" style="shape=datastore;whiteSpace=wrap;html=1;" vertex="1" parent="1">
          <mxGeometry x="663" y="424" width="34" height="43" as="geometry" />
        </mxCell>
        <mxCell id="vmbFCQiHmaRABoGZYBvy-75" style="edgeStyle=orthogonalEdgeStyle;rounded=0;orthogonalLoop=1;jettySize=auto;html=1;exitX=0;exitY=0.75;exitDx=0;exitDy=0;entryX=1;entryY=0.75;entryDx=0;entryDy=0;" edge="1" parent="1" source="vmbFCQiHmaRABoGZYBvy-73" target="vmbFCQiHmaRABoGZYBvy-39">
          <mxGeometry relative="1" as="geometry" />
        </mxCell>
        <mxCell id="vmbFCQiHmaRABoGZYBvy-73" value="Dao" style="rounded=1;whiteSpace=wrap;html=1;" vertex="1" parent="1">
          <mxGeometry x="699" y="369.5" width="56" height="45" as="geometry" />
        </mxCell>
        <mxCell id="vmbFCQiHmaRABoGZYBvy-76" value="&lt;b&gt;Entity&lt;/b&gt;" style="text;html=1;strokeColor=none;fillColor=none;align=center;verticalAlign=middle;whiteSpace=wrap;rounded=0;" vertex="1" parent="1">
          <mxGeometry x="646" y="377" width="60" height="30" as="geometry" />
        </mxCell>
      </root>
    </mxGraphModel>
  </diagram>
</mxfile>
